<?xml version="1.0" encoding="utf-8"?>
<svg version="1.1" id="Layer_1" xmlns="http://www.w3.org/2000/svg" xmlns:xlink="http://www.w3.org/1999/xlink" x="0px" y="0px"
	 viewBox="0 0 100 100" style="enable-background:new 0 0 100 100;" xml:space="preserve">
<g>
	<path d="M83,62.8H29.2c-1.4,0-2.5-1-2.8-2.3l-6.6-45L4,10.7c-1.5-0.5-2.3-2.1-1.8-3.5s2.1-2.3,3.5-1.8l17.5,5.2
		c1,0.3,1.7,1.2,1.9,2.2l6.5,44.3H81l10.4-31.3l-50.8-2.3c-1.6-0.1-2.8-1.4-2.7-2.9c0.1-1.6,1.4-2.8,2.9-2.7l54.6,2.4
		c0.9,0,1.7,0.5,2.2,1.2c0.5,0.7,0.6,1.6,0.4,2.5L85.7,60.9C85.3,62,84.2,62.8,83,62.8z"/>
</g>
<g>
	<path d="M82.2,78H31.4c-0.9,0-1.7-0.4-2.3-1.2c-0.5-0.7-0.7-1.7-0.4-2.5l4.9-15.2c0.5-1.5,2.1-2.3,3.5-1.8c1.5,0.5,2.3,2.1,1.8,3.5
		l-3.7,11.5h46.9c1.6,0,2.8,1.3,2.8,2.8C85.1,76.7,83.8,78,82.2,78z"/>
</g>
<g>
	<path d="M36.1,96.8c-5.8,0-10.5-4.7-10.5-10.5c0-5.8,4.7-10.5,10.5-10.5s10.5,4.7,10.5,10.5C46.6,92,41.9,96.8,36.1,96.8z
		 M36.1,81.4c-2.7,0-4.9,2.2-4.9,4.9s2.2,4.9,4.9,4.9s4.9-2.2,4.9-4.9S38.8,81.4,36.1,81.4z"/>
</g>
<g>
	<path d="M78.3,96.8c-5.8,0-10.5-4.7-10.5-10.5c0-5.8,4.7-10.5,10.5-10.5c5.8,0,10.5,4.7,10.5,10.5C88.8,92,84.1,96.8,78.3,96.8z
		 M78.3,81.4c-2.7,0-4.9,2.2-4.9,4.9s2.2,4.9,4.9,4.9c2.7,0,4.9-2.2,4.9-4.9S81,81.4,78.3,81.4z"/>
</g>
</svg>
